<svg xmlns="http://www.w3.org/2000/svg" viewBox="0 0 200 200" fill="none">
  <g stroke="#1A1A1A" stroke-width="6" stroke-linejoin="round" stroke-linecap="round">
    <circle cx="100" cy="42" r="16" fill="#1E3A5F"/>
    <circle cx="100" cy="42" r="6" fill="#F4EDE0"/>
    <rect x="92" y="58" width="16" height="86" fill="#1E3A5F"/>
    <rect x="70" y="72" width="60" height="12" fill="#1E3A5F"/>
    <path d="M40 122 Q44 158 88 168 Q96 164 92 156 Q66 148 62 122 Z" fill="#1E3A5F"/>
    <path d="M160 122 Q156 158 112 168 Q104 164 108 156 Q134 148 138 122 Z" fill="#1E3A5F"/>
    <path d="M40 122 L34 130" />
    <path d="M40 122 L48 122" />
    <path d="M160 122 L166 130" />
    <path d="M160 122 L152 122" />
    <path d="M88 168 Q100 174 112 168" />
    <path d="M82 60 Q70 50 60 60 Q56 74 70 78" stroke="#E5A823" stroke-width="5" fill="none"/>
    <path d="M118 60 Q130 50 140 60 Q144 74 130 78" stroke="#E5A823" stroke-width="5" fill="none"/>
  </g>
</svg>
